# xmcd
#
# Track frame offsets:
#	150
#	92331
#	134400
#	154021
#	172763
#	197913
#	220272
#	257845
#	273037
#
# Disc length: 3830 seconds
#
# Revision: 2
# Processed by: cddbd v1.5.2PL0 Copyright (c) Steve Scherf et al.
# Submitted via: audiograbber 1.83.01
#
DISCID=730ef409
DTITLE=Tangerine Dream - The Virgin Years 1977-1983 [CD 3) [remastered]
DYEAR=2012
DGENRE=Electronic
TTITLE0=Tangram [side two] - Tangram (Set 2)
TTITLE1=Exit - Kiew Mission
TTITLE2=Exit - Pilots Of Purple Twilight
TTITLE3=Exit - Choronzon
TTITLE4=Exit - Exit
TTITLE5=Exit - Network 23
TTITLE6=Exit - Remote Viewing
TTITLE7=Beach Scene [A-side 1981] [bonus track]
TTITLE8=Burning Bar [B-side 1981] [bonus track]
EXTD=
EXTT0=
EXTT1=
EXTT2=
EXTT3=
EXTT4=
EXTT5=
EXTT6=
EXTT7=
EXTT8=
PLAYORDER=
